# xmcd
#
# Track frame offsets: 
#        150
#        22711
#        48882
#        70474
#        96239
#        110625
#        140491
#        165363
#        198940
#
# Disc length: 3018 seconds
#
# Revision: 1
# Processed by: cddbd v1.5.2PL0 Copyright (c) Steve Scherf et al.
# Submitted via: ExactAudioCopy v0.99pb4
#
DISCID=710bc809
DTITLE=Toumast - Ishumar
DYEAR=2006
DGENRE=Desert Blues
TTITLE0=Ikalane walegh (These Countries That Are Not Mine)
TTITLE1=Tallyatt idaght (That Girl)
TTITLE2=Innulamane (The Falcon)
TTITLE3=Ammilana (O My God, O My Soul)
TTITLE4=Ezeref (The Camel)
TTITLE5=Dounia (Life)
TTITLE6=Maraou oran (For Twelve Moons)
TTITLE7=Kik ayittma (Hey! My Brothers!)
TTITLE8=Amidinine (Oh My Friend, Oh My Friend)
EXTD=YEAR: 2006
EXTT0=
EXTT1=
EXTT2=
EXTT3=
EXTT4=
EXTT5=
EXTT6=
EXTT7=
EXTT8=
PLAYORDER=
